<svg width="192" height="67" viewBox="0 0 192 67" fill="none" xmlns="http://www.w3.org/2000/svg">
<path d="M16.6964 43.1573C15.1675 43.1573 13.241 42.2365 10.9475 40.395C9.32677 40.1188 7.95069 39.7812 6.78866 39.3515C5.62664 38.9218 4.67867 38.4001 3.94476 37.7862C2.90506 36.8655 1.95709 35.6685 1.1926 34.1646C0.397534 32.6607 0 31.1875 0 29.8064C0 28.7629 0.244637 27.8114 0.73391 26.9827C1.86535 24.9878 3.30259 23.975 5.01505 23.975C6.32997 23.975 7.09446 25.0799 7.3391 27.3204C7.61431 29.4074 7.82837 31.0647 7.98127 32.2924C8.13417 33.5201 8.28706 34.3181 8.40938 34.6864C8.95981 36.5279 9.93836 38.0931 11.2839 39.3822C12.874 39.7198 14.5865 39.904 16.4212 39.904C20.4883 39.904 24.3719 39.1367 28.1026 37.5714C29.6928 36.8962 31.2217 36.0061 32.7201 34.9012C34.2185 33.7963 35.4723 32.5993 36.4509 31.2796C37.4294 29.9598 37.9187 28.6708 37.9187 27.4431C37.9187 25.663 36.3591 24.2819 33.24 23.2997L23.3016 21.0286C21.2834 20.5682 19.6321 19.7702 18.4089 18.6346C17.1857 17.499 16.5741 16.1793 16.5741 14.7061C16.5741 12.4349 17.9808 10.1637 20.7941 7.9232C22.2313 6.75691 23.8826 5.77478 25.8092 4.9461C27.7357 4.11743 29.7539 3.50359 31.8639 3.07391C33.9739 2.64422 36.0227 2.42938 37.9798 2.42938C40.7626 2.42938 43.1478 2.85907 45.1049 3.71843C47.0925 4.5778 48.3157 5.86685 48.805 7.52421C48.9273 7.89251 48.9885 8.32219 48.9885 8.78257C48.9885 11.0844 47.8265 12.6804 45.533 13.6012C44.1263 14.1536 42.9643 14.4605 41.9858 14.4605C41.3742 14.4605 40.9155 14.3378 40.5791 14.1229C40.5179 14.0615 40.4568 13.9388 40.4568 13.8467C40.4568 13.5705 40.9766 13.417 42.0469 13.3863C42.6891 13.3556 43.2089 13.2942 43.6371 13.2022C44.0652 13.1408 44.3404 13.0487 44.5544 12.9873C45.9917 12.22 46.695 11.1151 46.695 9.64193C46.695 8.87464 46.4809 8.10735 46.0834 7.24798C44.9214 5.09956 41.9858 4.02535 37.3377 4.02535C35.6558 4.02535 33.8822 4.2095 32.078 4.5778C30.2738 4.9461 28.5613 5.46786 26.9406 6.17377C25.3199 6.87968 23.9438 7.73905 22.8124 8.81326C20.8553 10.6241 19.8767 12.2507 19.8767 13.6932C19.8767 14.7981 20.3966 15.7496 21.4974 16.609C22.5677 17.4683 24.1884 18.0822 26.3902 18.5118L33.0565 19.7702C35.6252 20.2613 37.674 20.9979 39.2642 21.9493C40.8543 22.9008 41.6494 24.374 41.6494 26.3382C41.6494 28.0877 41.2213 29.7143 40.365 31.2182C39.5088 32.7221 38.3468 34.0725 36.9095 35.2695C35.4723 36.4665 33.821 37.4486 31.9557 38.2466C27.7663 40.0881 22.8429 41.0089 17.1551 41.0089C16.4518 41.0089 15.7179 41.0089 15.0146 40.9475C14.3112 40.8861 13.6079 40.8554 12.9352 40.7633C13.455 41.0702 14.1278 41.3772 14.9534 41.6841C15.7485 41.991 16.6964 42.2672 17.7362 42.5434C17.8585 42.5741 17.9196 42.6662 17.9196 42.7583C17.9196 43.0959 17.5221 43.28 16.727 43.28L16.6964 43.1573ZM9.26561 38.7991C8.25648 37.6635 7.46142 36.4972 6.8804 35.3002C6.05476 33.3973 5.44316 31.0954 5.01505 28.3332C4.70925 26.3382 4.40346 25.3254 4.06708 25.3254C3.76129 25.3254 3.36375 25.5402 2.8439 26.0006C2.32405 26.461 2.07941 27.4124 2.07941 28.8856C2.07941 31.74 3.08854 34.2567 5.13737 36.3744C6.14649 37.4179 7.52257 38.2466 9.26561 38.7991Z" fill="#9E8626"/>
<path d="M46.6644 38.0931C45.4718 38.0931 44.5239 37.7862 43.8205 37.2031C43.1172 36.6199 42.7808 35.5764 42.7808 34.0725C42.7808 33.2132 43.056 32.1083 43.5759 30.7578C44.0957 29.4074 44.7685 27.9649 45.5636 26.4303C46.3586 24.8957 47.1537 23.3611 47.9488 21.8265C47.4595 21.9493 47.0314 22.0107 46.6644 22.0107C45.533 22.0107 44.9826 21.581 44.9826 20.7216C44.9826 20.2919 45.1355 19.985 45.4718 19.7702C45.7776 19.5553 46.0834 19.4019 46.3586 19.3712C46.5421 19.3712 46.7256 19.3712 46.8785 19.3098H50.1505C50.8232 18.4504 51.5266 17.5297 52.2299 16.5476C53.239 15.2585 54.0647 14.5219 54.6457 14.2764H54.8292C55.1044 14.2764 55.4713 14.3991 55.9606 14.6754C56.5722 15.013 56.878 15.3506 56.878 15.6882C56.878 16.1793 55.9606 17.4376 54.1564 19.494C54.4928 19.5246 54.9821 19.5553 55.6242 19.5553H59.936C60.7922 19.5553 61.679 19.5553 62.5964 19.5553C63.5138 19.5553 64.3088 19.5246 64.9816 19.494C65.6543 19.4633 66.0213 19.494 66.113 19.494C66.2354 19.5246 66.2965 19.586 66.2965 19.6781C66.2965 20.0157 64.0642 20.4761 59.6302 21.0285C57.1226 21.3662 55.1656 21.6424 53.8506 21.8265C52.5051 22.0107 51.8018 22.1334 51.6795 22.1641C51.1596 22.6245 50.5175 23.3918 49.753 24.4967C48.9885 25.6016 48.2546 26.8293 47.4901 28.1797C46.7256 29.5301 46.114 30.8192 45.5941 32.0469C45.0743 33.2745 44.8297 34.226 44.8297 34.9012C44.8297 35.515 45.0437 36.0061 45.5024 36.4051C45.9611 36.8041 46.695 36.9882 47.7041 36.9882C48.3769 36.9882 49.2025 36.8348 50.1199 36.5279C51.0679 36.2209 51.9547 35.8833 52.8109 35.4843C53.6672 35.0853 54.2787 34.7784 54.6457 34.5636C55.6242 33.9498 56.6945 33.1518 57.8871 32.1696C59.0797 31.1568 60.2418 30.0212 61.4038 28.7322C61.9236 28.2104 62.2906 27.9342 62.4741 27.9342C62.5964 27.9342 62.6575 27.9956 62.6575 28.149C62.6575 28.4559 62.3823 28.947 61.8013 29.6222C60.8839 30.7271 59.9054 31.7706 58.7739 32.7528C57.6731 33.7656 56.4193 34.6557 55.0738 35.515C53.5448 36.4665 52.0464 37.1417 50.6398 37.5407C49.2331 37.9704 47.9182 38.1545 46.7256 38.1545L46.6644 38.0931Z" fill="#9E8626"/>
<path d="M62.3517 37.8783C61.4038 37.8783 60.6699 37.4486 60.15 36.5586C59.6302 35.6685 59.3549 34.8091 59.3549 33.9805C59.3549 31.7093 61.0062 28.548 64.2783 24.466C67.5809 20.3533 70.2719 18.297 72.2901 18.297C74.2166 18.297 75.1646 19.3098 75.1646 21.3662C75.1646 21.6731 75.1646 21.98 75.0728 22.3176C75.0117 22.6552 74.9505 23.0235 74.8894 23.3918C74.9505 23.5146 75.1646 23.5453 75.4398 23.5453C76.4489 23.5453 77.6721 23.177 79.0482 22.4711C79.0176 23.1156 77.5192 24.0363 74.5836 25.2333C75.0117 26.4917 73.7579 28.8549 70.8529 32.3845C67.8867 36.0368 65.3485 37.8783 63.2386 37.8783H62.3212H62.3517ZM63.3915 36.1903C65.0122 36.1903 67.0916 34.6864 69.5991 31.7093C72.0455 28.7936 73.2687 26.7065 73.2687 25.4175C72.6571 25.0799 71.9232 24.2205 71.0058 22.8087C69.7214 22.8087 67.8867 24.3433 65.4709 27.4431C63.0857 30.4509 61.9542 32.7835 62.0154 34.4101C62.046 35.5764 62.5046 36.1596 63.3609 36.1596L63.3915 36.1903Z" fill="#9E8626"/>
<path d="M87.3047 38.0625C85.684 38.0625 84.5831 37.6328 83.9715 36.7734C83.3599 35.914 83.0541 34.7784 83.0541 33.3359C83.0541 31.74 83.5434 29.8678 84.5219 27.658C84.8889 26.7986 85.2864 26.0006 85.7145 25.2947C86.1427 24.5888 86.5708 23.9443 87.0295 23.3304C86.8766 23.3611 86.7542 23.3918 86.6319 23.3918H86.2955C85.3782 23.3918 84.6442 22.7473 84.0327 21.4582L79.8433 26.8907C77.611 29.8064 76.2655 31.2489 75.7762 31.2489C75.5927 31.2489 75.501 31.1875 75.501 31.0341C75.501 30.8499 75.5927 30.6044 75.7762 30.2975C75.8985 30.0826 76.1126 29.7757 76.4489 29.3767C77.8862 27.7193 79.2011 26.062 80.3937 24.4353C81.5863 22.8087 82.5954 21.2127 83.3905 19.6781C84.2467 16.3941 85.3476 14.7368 86.6625 14.7368C87.5187 14.7368 87.9468 15.1357 87.9468 15.9337C87.9468 16.6396 87.4881 17.5911 86.5402 18.7574C85.6228 19.9237 85.1947 20.5375 85.1947 20.5682C85.1947 21.3662 85.7757 21.7652 86.9377 21.7652C87.6105 21.7652 88.375 21.5196 89.2006 21.0286L90.6684 20.1078C90.6684 20.1078 90.8519 20.0464 91.0048 20.0464C91.4635 20.0464 91.861 20.2306 92.1974 20.5989C92.5338 20.9672 92.6561 21.3048 92.5338 21.6117L88.6502 26.5531C86.2344 29.6529 85.0418 32.139 85.0418 34.0418C85.0418 35.7299 85.8674 36.5893 87.5187 36.5893C88.6502 36.5893 89.8734 36.2516 91.1577 35.5764C92.442 34.9012 93.7264 34.0418 94.9496 33.0597C96.1727 32.0469 97.1819 31.0954 98.0381 30.144L99.3836 28.548L99.6588 28.2718C99.6588 28.2718 99.8729 28.1183 99.934 28.1183C100.209 28.1183 100.332 28.2411 100.332 28.5173C100.332 28.5787 100.301 28.7322 100.209 28.9163C100.118 29.1005 99.9952 29.3153 99.8117 29.5302L98.0075 31.5558C97.1513 32.5379 96.081 33.5201 94.8272 34.5329C93.5735 35.5457 92.2586 36.3437 90.9436 36.9882C89.5981 37.6328 88.4055 37.9397 87.3047 37.9397V38.0625Z" fill="#9E8626"/>
<path d="M100.056 38.4001C99.2307 38.4001 98.5274 38.1238 98.0075 37.5714C97.4571 37.0189 97.1819 36.0675 97.1819 34.6557C97.1819 33.8577 97.3654 32.9369 97.7323 31.8934C98.0993 30.8499 98.5274 29.8064 99.0778 28.7629C99.6283 27.7194 100.148 26.7679 100.699 25.9392C102.809 22.5018 104.521 20.7523 105.897 20.7216C106.233 20.7216 106.662 20.8751 107.151 21.1513C107.64 21.4276 107.885 21.7345 107.885 22.0721L103.604 27.6273C100.79 31.2796 99.3836 33.8884 99.3836 35.4537C99.3836 36.6506 99.8423 37.2645 100.79 37.2645C101.402 37.2645 102.166 37.0189 103.145 36.4972C104.093 35.9754 105.102 35.3309 106.172 34.5329C107.243 33.7349 108.221 32.8756 109.2 31.9855C110.178 31.0954 110.943 30.2361 111.554 29.4995C111.921 29.0084 112.258 28.6708 112.533 28.4866C112.808 28.3025 112.992 28.2104 113.083 28.2104C113.236 28.2104 113.297 28.3332 113.297 28.548C113.297 28.7322 113.083 29.1005 112.655 29.6836C112.227 30.2361 111.646 30.9113 110.882 31.6786C109.964 32.5993 108.986 33.5815 107.885 34.625C106.784 35.6685 105.622 36.5893 104.337 37.3259C103.053 38.0625 101.677 38.4308 100.148 38.4308L100.056 38.4001ZM110.515 18.2663C109.872 18.2663 109.322 18.0515 108.863 17.6525C108.405 17.2228 108.16 16.7624 108.16 16.2407C108.16 15.1971 108.863 14.6447 110.301 14.6447C110.82 14.6447 111.34 14.8288 111.891 15.1664C112.411 15.5347 112.686 15.9644 112.686 16.4862C112.686 16.9466 112.441 17.3456 111.952 17.7139C111.463 18.0822 111.004 18.2663 110.545 18.2663H110.515Z" fill="#9E8626"/>
<path d="M174.304 37.8783C172.53 37.8783 171.215 37.2952 170.389 36.1289C169.533 34.9626 168.86 33.3359 168.341 31.2489C167.668 31.9241 167.209 32.2617 166.934 32.2617C166.75 32.2617 166.659 32.1083 166.659 31.8013C166.659 31.5865 166.75 31.3717 166.934 31.1875C168.86 28.8549 170.97 26.6144 173.264 24.4967L180.389 17.8059C181.367 16.8545 182.162 16.1486 182.744 15.6575C183.325 15.1664 183.753 14.9209 184.028 14.9209C185.22 14.9209 185.832 15.3813 185.832 16.2713C185.832 16.7317 185.587 17.2535 185.098 17.8673C184.731 18.3277 184.456 18.6653 184.272 18.9108C184.12 19.1564 183.997 19.3098 183.967 19.3405C183.294 20.5068 182.682 22.5938 182.101 25.6323C181.673 27.8728 181.337 29.6836 181.031 31.1261C180.725 32.5686 180.481 33.6121 180.297 34.226C181.887 34.1953 183.447 33.7042 184.976 32.7528C186.505 31.8013 188.187 30.2668 189.93 28.1183C189.991 28.0569 190.113 27.9342 190.266 27.7807C190.419 27.6273 190.572 27.5659 190.725 27.5659C190.939 27.5659 191.061 27.658 191.061 27.8421C191.061 28.0263 191 28.2104 190.878 28.3946C190.755 28.5787 190.664 28.7629 190.541 28.9163C189.379 30.3281 188.278 31.4637 187.269 32.3538C186.26 33.2438 185.19 33.9498 184.058 34.4408C182.927 34.9626 181.581 35.3616 180.053 35.7299L178.248 36.9269C177.759 37.2645 177.178 37.51 176.505 37.6635C175.833 37.8169 175.099 37.8783 174.365 37.8783H174.304ZM174.976 34.9933C175.833 34.9933 176.566 34.7784 177.117 34.3794C177.545 34.1646 177.943 33.5201 178.34 32.4766C178.738 31.433 179.135 30.144 179.502 28.6094C179.808 27.2897 180.053 26.0006 180.205 24.7422C180.389 23.4839 180.542 22.2562 180.695 21.0899L180.909 19.1564C180.053 19.8009 178.952 20.7216 177.637 21.9186C176.322 23.1156 175.007 24.4046 173.753 25.7244C172.469 27.0441 171.643 28.0263 171.276 28.6401C170.909 29.2539 170.695 29.7143 170.665 30.0212C170.512 31.5251 170.879 32.7528 171.765 33.6428C172.652 34.5329 173.723 34.9933 175.007 34.9933H174.976Z" fill="#9E8626"/>
<path d="M117.426 4.94609C121.493 3.68773 125.59 2.55214 129.749 1.6007C133.143 0.833404 139.626 -1.10017 144.427 0.833404C145.62 1.47793 145.192 3.01252 144.336 3.65704C137.241 8.44495 127.884 11.9438 121.829 15.6268C120.759 16.2713 119.994 16.6089 120.025 17.1614C120.025 17.499 122.41 18.1128 123.694 18.5732C130.452 20.9672 141.247 21.8572 148.433 22.8701C153.815 23.6373 162.102 23.975 161.246 29.4688C161.001 30.2974 160.42 30.6657 159.901 31.034C156.873 32.7221 151.98 34.7171 148.77 36.0675C137.302 40.6712 124.703 45.7968 113.144 50.0015C97.2125 55.925 81.2499 61.6951 65.1039 67.0047L88.5584 57.0606C105.53 50.0015 130.544 39.9346 147.394 32.8449C150.36 31.5251 157.699 29.6222 157.21 28.5787C156.567 27.1669 151.614 26.9214 147.852 26.3689C140.238 25.264 129.81 24.2512 122.594 21.6117C113.848 18.7881 116.386 14.9823 123.022 11.5755C130.147 7.92319 144.091 3.50358 143.418 2.46006C141.308 -0.762565 125.743 3.71842 117.395 4.97678L117.426 4.94609Z" fill="white"/>
</svg>
