<?xml version="1.0" encoding="UTF-8"?>
<svg id="Capa_1" data-name="Capa 1" xmlns="http://www.w3.org/2000/svg" viewBox="0 0 384.09 76.82" fill="#e6e7e8">
  <g>
    <path class="cls-1" d="m42.62,1.83C42.18.5,41.3-.01,39.88,0,33.54.05,27.2,0,20.86,0,14.73,0,8.59.03,2.46.05,1.18.05.38.62.16,1.69c-.22,1.05.31,2.26,1.31,2.66.4.16.88.16,1.26.18.13,0,.21.12.19.25-.35,1.54-.77,3.08-1,4.64-.41,2.79-.34,5.58.4,8.33,1.71,6.35,5.84,10.59,11.63,13.44,1.16.57,2.29,1.36,3.16,2.31,1.18,1.29.83,2.67-.55,3.65-1.59,1.13-3.38,1.98-5.07,3-5.35,3.22-8.79,7.78-9.78,14.05-.53,3.36-.03,6.57,1.28,9.81.11.27-.09.55-.38.55-1.29,0-2.22.52-2.62,1.84.02.28.06.66.08.94.15.31.3.62.52.88.47.54,1.03.87,1.85.83h37.43c1.42.01,2.06-.44,2.54-1.7.44-1.16-.58-2.68-1.85-2.74-.21,0-.41-.02-.63-.03-.27-.01-.45-.29-.34-.54,3.76-8.7.12-18.89-8.05-23.54-1.56-.89-3.13-1.77-4.67-2.69-2.93-1.73-2.4-4.26.17-5.88,1.24-.78,2.59-1.4,3.88-2.12,5.51-3.07,8.76-7.8,9.85-13.94.61-3.44.35-6.89-.89-10.21-.1-.27-.19-.55-.3-.88-.03-.1.05-.21.16-.2,1.32.11,2.29-.24,2.84-1.59,0-.02.03-.11.05-.23.06-.31.06-.62-.01-.93Zm-27.36,15.64c.07.67.28.84.5,1.49.14.24.45.96.43,1.18-.04.36-.15.8-.39,1.03-.1.09-.28.14-.59.03-.37-.13-.67-.39-.88-.71-.36-.55-.53-.83-.81-2.06-.59-4.09,1.59-7.4,5.26-8.47.07-.02.14-.03.21-.05h0c.06-.02.11-.02.16-.04.15-.03.29-.05.44-.07.68-.06,1.11.17,1.35.4.12.11.2.23.27.34,0,0,0,.01,0,.02.11.57-.32.99-.93,1.05-3.01.3-5.3,3.14-5.03,5.87Zm11.09,24.95c1.8,1.11,3.73,2.1,5.32,3.46,4.04,3.46,6.13,8.67,4.73,13.98-.07.26-.37.39-.6.25-.94-.57-1.86-1.13-2.77-1.7-3.7-2.3-7.39-4.61-11.08-6.93-.49-.31-.87-.32-1.36-.02l-12.09,7.53h1.19c3.55-.01,7.11-.03,10.66-.04.21,0,.42,0,.62.05.55.13,1.08.38,1,1.03-.08.6-.56.84-1.18.84-4.66,0-9.32,0-14.14,0-.19,0-.36-.14-.4-.33-.17-.92-.4-1.83-.41-2.75-.13-6.09,2.58-10.61,7.69-13.81,1.84-1.15,3.68-2.31,5.39-3.64,1.31-1.02,2-2.52,2.2-4.2.03-.22.14-.44.27-.67.29,3.32,2.33,5.35,4.96,6.97Zm-6.67-15.12c0-.29.24-.53.53-.53s.53.24.53.53-.24.53-.53.53-.53-.24-.53-.53Zm7.05-7.48c-.85,2.94-2.82,4.3-5.9,4.23-.46-.01-1.18.03-1.09-.68.07-.49.28-1.07,1.14-1.02,1.58.09,2.88-.57,3.68-1.98.73-1.3.73-2.65-.08-3.94-.64-1.02-2.05-1.53-3.17-1.18-.88.28-1.56,1.03-1.62,1.79-.06.73.17,1.27.79,1.73h0c.37.36.46.93.22,1.35-.42.35-.97.26-1.6-.29-1.08-.94-1.43-2.18-1.12-3.51.35-1.51,1.42-2.45,2.89-2.91,3.02-.95,7.06,2.29,5.86,6.42Zm.45-9.6c-.4,0-.72-.32-.72-.72s.32-.72.72-.72.72.32.72.72-.32.72-.72.72Zm2.06,10.21c-.22,0-.39-.18-.39-.39s.18-.39.39-.39.39.18.39.39-.18.39-.39.39Zm2.12-2.72c-.31,0-.57-.25-.57-.57s.25-.57.57-.57c.29,0,.52.21.56.49,0,0,0,0,0,0,0,0,0,0,0,0,0,.02,0,.04,0,.06,0,.31-.25.57-.57.57Zm.42-7.48c0-.31.25-.56.56-.56s.56.25.56.56-.25.56-.56.56-.56-.25-.56-.56Zm4.97,3.73c-.35,3.86-1.79,7.2-4.97,9.64.12-.22.23-.44.35-.65,2.02-3.29,3.07-6.86,3-10.72-.03-1.77-.43-3.49-1.21-5.11-.23-.48-.54-.69-1.1-.68-4.68.07-9.36.13-14.03.17-2.93.02-5.86.04-8.79,0-.76-.01-1.18.24-1.37.92-.29,1.07-.71,2.14-.82,3.24-.45,4.61.78,8.77,3.86,12.26,1.25,1.42,2.75,2.62,4.1,3.89h0c-4.8-1.75-8.03-5.11-9.39-10.1-1.08-3.96-.71-7.88.9-11.68.2-.48.45-.65.98-.65,8.62.02,17.24.03,25.85.02.55,0,.83.16,1.06.68,1.23,2.8,1.84,5.72,1.57,8.78Zm-26.45-3.55c0-.76.62-1.38,1.38-1.38s1.38.62,1.38,1.38-.62,1.38-1.38,1.38c-.01,0-.02,0-.03,0-.02,0-.03,0-.05,0-.03,0-.06,0-.09,0-.68-.08-1.21-.66-1.21-1.37Zm1.05,7.16c0,.23-.19.42-.42.42s-.42-.19-.42-.42.19-.42.42-.42.42.19.42.42Z"/>
    <path class="cls-1" d="m21.47,41.27c-1.36,0-2.35.91-2.36,2.19h0c0,1.42.89,2.33,2.3,2.33,1.21,0,2.26-1.03,2.28-2.25.02-1.21-1.01-2.26-2.22-2.27Z"/>
  </g>
  <g>
    <path class="cls-1" d="m60,21.24h1.12v-6.11c0-1.64.04-2.93.13-3.86.09-.93.33-1.73.73-2.4.4-.7.97-1.26,1.71-1.7.75-.43,1.58-.65,2.5-.65,1.29,0,2.46.48,3.5,1.45.7.65,1.14,1.44,1.32,2.37.19.93.28,2.26.28,3.97v6.93h3.73c1.44,0,2.54.34,3.3,1.03.76.68,1.14,1.56,1.14,2.63,0,1.37-.54,2.32-1.62,2.87-1.08.55-2.63.82-4.64.82h-1.9v18.71c0,1.59.06,2.81.17,3.67s.41,1.55.89,2.09c.48.53,1.27.8,2.37.8.6,0,1.4-.11,2.42-.32,1.02-.21,1.81-.32,2.39-.32.82,0,1.56.33,2.22.99.66.66.99,1.47.99,2.44,0,1.64-.9,2.9-2.68,3.77-1.79.87-4.36,1.3-7.72,1.3-3.18,0-5.59-.53-7.23-1.6-1.64-1.07-2.72-2.55-3.22-4.44-.51-1.89-.76-4.41-.76-7.57v-19.53h-1.34c-1.47,0-2.58-.35-3.35-1.04-.77-.7-1.16-1.58-1.16-2.65s.4-1.94,1.21-2.63c.81-.68,1.98-1.03,3.52-1.03Z"/>
    <path class="cls-1" d="m89.7,15.61c-1.42,0-2.63-.43-3.63-1.3-1.01-.87-1.51-2.1-1.51-3.69,0-1.44.52-2.63,1.55-3.56,1.03-.93,2.23-1.4,3.6-1.4s2.48.42,3.5,1.27c1.02.85,1.53,2.08,1.53,3.69s-.5,2.79-1.49,3.67c-.99.88-2.17,1.32-3.54,1.32Zm5.03,10.51v29.41c0,2.04-.48,3.58-1.45,4.62-.97,1.04-2.2,1.57-3.69,1.57s-2.7-.53-3.63-1.6c-.93-1.07-1.4-2.6-1.4-4.58v-29.11c0-2.01.47-3.53,1.4-4.55.93-1.02,2.14-1.53,3.63-1.53s2.72.51,3.69,1.53c.97,1.02,1.45,2.44,1.45,4.25Z"/>
    <path class="cls-1" d="m137.18,41.78v13.53c0,2.14-.48,3.74-1.45,4.81-.97,1.07-2.25,1.6-3.84,1.6s-2.79-.53-3.75-1.6c-.96-1.07-1.44-2.67-1.44-4.81v-16.21c0-2.56-.09-4.55-.26-5.96-.17-1.42-.65-2.58-1.42-3.49-.77-.91-1.99-1.36-3.65-1.36-3.33,0-5.52,1.14-6.58,3.43-1.06,2.29-1.58,5.57-1.58,9.84v13.75c0,2.11-.48,3.71-1.44,4.79-.96,1.08-2.22,1.62-3.78,1.62s-2.8-.54-3.78-1.62c-.98-1.08-1.47-2.68-1.47-4.79v-29.11c0-1.91.44-3.37,1.32-4.36.88-.99,2.04-1.49,3.49-1.49s2.55.47,3.49,1.4c.93.93,1.4,2.22,1.4,3.86v.97c1.76-2.11,3.65-3.67,5.67-4.66,2.01-.99,4.25-1.49,6.71-1.49s4.76.51,6.6,1.53c1.84,1.02,3.35,2.56,4.55,4.62,1.71-2.09,3.55-3.63,5.52-4.64s4.14-1.51,6.52-1.51c2.78,0,5.18.55,7.19,1.64,2.01,1.09,3.52,2.66,4.51,4.7.87,1.84,1.3,4.73,1.3,8.69v19.87c0,2.14-.48,3.74-1.45,4.81-.97,1.07-2.25,1.6-3.84,1.6s-2.8-.54-3.78-1.62c-.98-1.08-1.47-2.68-1.47-4.79v-17.11c0-2.19-.09-3.94-.28-5.26-.19-1.32-.69-2.42-1.51-3.32-.82-.89-2.06-1.34-3.73-1.34-1.34,0-2.62.4-3.82,1.19-1.21.8-2.14,1.86-2.81,3.21-.75,1.71-1.12,4.75-1.12,9.09Z"/>
    <path class="cls-1" d="m197.38,43.53h-19.9c.02,2.31.49,4.35,1.4,6.11.91,1.76,2.11,3.09,3.62,3.99,1.5.89,3.16,1.34,4.98,1.34,1.22,0,2.33-.14,3.34-.43,1.01-.29,1.98-.73,2.93-1.34.94-.61,1.81-1.26,2.61-1.96.8-.7,1.83-1.64,3.09-2.83.52-.45,1.27-.67,2.24-.67,1.04,0,1.89.29,2.53.86.65.57.97,1.38.97,2.42,0,.92-.36,1.99-1.08,3.22-.72,1.23-1.81,2.41-3.26,3.54-1.45,1.13-3.28,2.07-5.48,2.81-2.2.75-4.73,1.12-7.59,1.12-6.54,0-11.62-1.86-15.25-5.59-3.63-3.73-5.44-8.78-5.44-15.17,0-3.01.45-5.8,1.34-8.37.89-2.57,2.2-4.78,3.91-6.62,1.71-1.84,3.83-3.25,6.34-4.23,2.51-.98,5.29-1.47,8.35-1.47,3.98,0,7.39.84,10.23,2.52,2.85,1.68,4.98,3.85,6.39,6.5,1.42,2.66,2.12,5.37,2.12,8.13,0,2.56-.73,4.22-2.2,4.98-1.47.76-3.53,1.14-6.19,1.14Zm-19.9-5.78h18.45c-.25-3.48-1.19-6.08-2.81-7.81-1.63-1.73-3.77-2.59-6.43-2.59s-4.62.88-6.24,2.63c-1.63,1.75-2.62,4.34-2.96,7.77Z"/>
    <path class="cls-1" d="m217.76,26.68l6.64,22.74,6.04-21.13c.65-2.21,1.12-3.72,1.44-4.53.31-.81.89-1.58,1.75-2.31.86-.73,2.03-1.1,3.52-1.1s2.7.37,3.56,1.1c.86.73,1.46,1.53,1.81,2.39.35.86.83,2.34,1.45,4.45l6.04,21.13,6.71-22.74c.45-1.64.81-2.83,1.08-3.56s.73-1.38,1.38-1.94c.65-.56,1.58-.84,2.8-.84s2.27.42,3.17,1.27c.89.85,1.34,1.84,1.34,2.98,0,1.04-.39,2.62-1.16,4.73l-8.31,24.38c-.72,2.06-1.28,3.55-1.68,4.47-.4.92-1.02,1.74-1.88,2.46-.86.72-2.03,1.08-3.52,1.08s-2.75-.39-3.63-1.16c-.88-.77-1.53-1.71-1.96-2.83-.42-1.12-.88-2.57-1.38-4.36l-5.81-19.83-5.63,19.83c-.75,2.76-1.55,4.84-2.42,6.24-.87,1.4-2.4,2.11-4.58,2.11-1.12,0-2.07-.22-2.85-.65-.78-.43-1.44-1.06-1.96-1.86s-.98-1.76-1.38-2.87c-.4-1.11-.71-1.98-.93-2.63l-8.24-24.38c-.82-2.29-1.23-3.86-1.23-4.73,0-1.09.43-2.07,1.3-2.94s1.94-1.3,3.21-1.3c1.69,0,2.83.48,3.43,1.44.6.96,1.23,2.59,1.9,4.9Z"/>
    <path class="cls-1" d="m296.29,55.98c-2.46,1.91-4.84,3.35-7.14,4.31-2.3.96-4.88,1.44-7.73,1.44-2.61,0-4.9-.52-6.88-1.55-1.98-1.03-3.5-2.43-4.57-4.19-1.07-1.76-1.6-3.68-1.6-5.74,0-2.78.88-5.16,2.65-7.12,1.76-1.96,4.19-3.28,7.27-3.95.65-.15,2.25-.48,4.81-1.01,2.56-.52,4.75-1,6.58-1.44,1.83-.43,3.81-.96,5.95-1.58-.12-2.68-.67-4.65-1.62-5.91-.96-1.25-2.94-1.88-5.95-1.88-2.58,0-4.53.36-5.83,1.08-1.3.72-2.42,1.8-3.35,3.24-.93,1.44-1.59,2.39-1.98,2.85-.39.46-1.21.69-2.48.69-1.14,0-2.13-.37-2.96-1.1-.83-.73-1.25-1.67-1.25-2.81,0-1.79.63-3.53,1.9-5.22,1.27-1.69,3.24-3.08,5.93-4.17,2.68-1.09,6.03-1.64,10.03-1.64,4.47,0,7.99.53,10.55,1.58,2.56,1.06,4.37,2.73,5.42,5.01,1.06,2.29,1.58,5.32,1.58,9.09,0,2.39,0,4.41-.02,6.08-.01,1.67-.03,3.52-.06,5.55,0,1.91.32,3.91.95,5.98.63,2.08.95,3.41.95,4.01,0,1.04-.49,1.99-1.47,2.85-.98.86-2.09,1.29-3.34,1.29-1.04,0-2.08-.49-3.09-1.47-1.02-.98-2.1-2.4-3.24-4.27Zm-.67-14.72c-1.49.55-3.66,1.12-6.5,1.73-2.85.61-4.81,1.06-5.91,1.34-1.09.29-2.14.85-3.13,1.68-.99.83-1.49,1.99-1.49,3.48s.58,2.85,1.75,3.93c1.17,1.08,2.7,1.62,4.58,1.62,2.01,0,3.87-.44,5.57-1.32,1.7-.88,2.95-2.02,3.75-3.41.92-1.54,1.38-4.08,1.38-7.6v-1.45Z"/>
    <path class="cls-1" d="m324.12,47.03v8.5c0,2.06-.48,3.61-1.45,4.64-.97,1.03-2.2,1.55-3.69,1.55s-2.67-.52-3.62-1.57c-.94-1.04-1.42-2.58-1.42-4.62v-28.33c0-4.57,1.65-6.86,4.96-6.86,1.69,0,2.91.53,3.65,1.6.75,1.07,1.16,2.65,1.23,4.73,1.22-2.09,2.47-3.67,3.75-4.73,1.28-1.07,2.99-1.6,5.12-1.6s4.21.53,6.22,1.6c2.01,1.07,3.02,2.49,3.02,4.25,0,1.24-.43,2.27-1.29,3.08s-1.78,1.21-2.78,1.21c-.37,0-1.27-.23-2.7-.69-1.43-.46-2.69-.69-3.78-.69-1.49,0-2.71.39-3.65,1.17s-1.68,1.94-2.2,3.48c-.52,1.54-.88,3.37-1.08,5.5-.2,2.12-.3,4.72-.3,7.77Z"/>
    <path class="cls-1" d="m353.94,26.05v1.23c1.91-2.36,3.9-4.09,5.96-5.2,2.06-1.11,4.4-1.66,7.01-1.66,3.13,0,6.01.81,8.65,2.42,2.63,1.62,4.72,3.98,6.24,7.08,1.53,3.11,2.29,6.78,2.29,11.03,0,3.13-.44,6.01-1.32,8.63-.88,2.62-2.09,4.82-3.63,6.6-1.54,1.78-3.36,3.14-5.46,4.1-2.1.96-4.36,1.44-6.77,1.44-2.91,0-5.35-.58-7.33-1.75-1.97-1.17-3.86-2.88-5.65-5.14v15.28c0,4.47-1.63,6.71-4.88,6.71-1.91,0-3.18-.58-3.8-1.73-.62-1.16-.93-2.84-.93-5.05V26.12c0-1.94.42-3.39,1.27-4.34.84-.96,2-1.44,3.47-1.44s2.61.49,3.52,1.47c.91.98,1.36,2.39,1.36,4.23Zm19.94,14.8c0-2.68-.41-4.99-1.23-6.91s-1.96-3.4-3.41-4.44c-1.45-1.03-3.06-1.55-4.83-1.55-2.81,0-5.17,1.11-7.1,3.32-1.93,2.21-2.89,5.47-2.89,9.77,0,4.05.96,7.2,2.87,9.45,1.91,2.25,4.29,3.37,7.12,3.37,1.69,0,3.26-.49,4.7-1.47,1.44-.98,2.6-2.45,3.47-4.42.87-1.96,1.3-4.34,1.3-7.12Z"/>
  </g>
</svg>